<svg id="visual" viewBox="0 0 900 600" width="900" height="600" xmlns="http://www.w3.org/2000/svg" xmlns:xlink="http://www.w3.org/1999/xlink" version="1.1"><rect x="0" y="0" width="900" height="600" fill="#FFF7E9"></rect><g transform="translate(412.6410529016915 320.86911090007516)"><path d="M221.9 -240.3C283.1 -213.1 325.2 -138.9 298.6 -83.2C272 -27.6 176.6 9.7 128.1 55.5C79.7 101.4 78.1 156 51.4 184.3C24.7 212.7 -27.1 214.9 -89.7 208.5C-152.3 202.2 -225.5 187.4 -231.6 147.8C-237.6 108.2 -176.4 44 -141.3 -2.3C-106.2 -48.5 -97.1 -76.7 -77.9 -111.4C-58.7 -146 -29.4 -187 25.5 -217.4C80.3 -247.8 160.7 -267.5 221.9 -240.3" fill="none" stroke="#385250" stroke-width="6"></path></g></svg>